<svg viewBox="0 0 198.5 196.1" xmlns="http://www.w3.org/2000/svg"><defs><style>.cls-1{opacity:0.4;}.cls-2{fill:white;}</style></defs><title>tcx-globe</title><g class="cls-1"><path class="cls-2" d="M42.2,30.2,73.7,2h.1L101,8.3l-.7.3ZM73.8,2.5,44.2,29,99.4,8.4Z"/><path class="cls-2" d="M140.5,24.4l-.5-.2L99.4,8.2l31.5-4.5,9.6,20.7ZM101,8.4l38.6,15.2-9-19.4L101,8.4Z"/><path class="cls-2" d="M179,59.5,139.5,23.9l24.6-.3.1.1L179,59.5ZM140.6,24.2l37.3,33.6L163.8,23.9Z"/><path class="cls-2" d="M196.4,101.3l-14-27.2-4.2-15.7,11,1.2v.2ZM178.7,58.9l4,15.1,12.7,24.6L188.7,60Z"/><path class="cls-2" d="M187.9,138.2l-12.3-12.6.1-.2,20.7-26.3-.2.9-8.3,38.2Zm-11.8-12.6,11.5,11.8,7.9-36.5Z"/><path class="cls-2" d="M150.9,180.4l24.9-55.2,12.3,12.6-.1.2Zm25-54.5-23.4,51.9,35-40.1-11.6-11.8Z"/><path class="cls-2" d="M129.7,179.9l.3-.4,46.7-55.3-24.8,55.1h-.1l-22.1.6Zm45.3-53-44.4,52.5,20.9-.6L175,126.9Z"/><path class="cls-2" d="M106.9,194.5,83.4,182.7l47.6-3.3ZM85,183l21.9,10.9,22.4-14L85,183Z"/><path class="cls-2" d="M71.9,191.6l-.1-.2L59.5,172.8l25.2,10ZM60.6,173.7,72,191l11.7-8.1Z"/><path class="cls-2" d="m42.8 178.2-11.5-20.6l29.4 15.7-17.9 4.9zm-10.4-19.5l10.6 19 16.5-4.5z"/><path class="cls-2" d="m32.2 158.7-16.9-10.3l4.2-23zm-16.4-10.5l15.6 9.5-11.7-30.7z"/><path class="cls-2" d="M19.9,126.8l-17.4-18,.1-.1,12.3-23ZM3,108.7l16.3,16.8L14.5,87Z"/><path class="cls-2" d="M14.8,87.1,5.4,65.6l.1-.1L20.8,48.1ZM5.9,65.7l8.7,19.8,5.6-36Z"/><path class="cls-2" d="M20,49.5,27,30l16.8-.6Zm7.3-19.1L20.9,48.1,42.5,29.8Z"/><path class="cls-2" d="M101.4,26.3,99.9,8,141,24.2Zm-1-17.6,1.4,17.2,37.2-2Z"/><path class="cls-2" d="M62,48.2l-.1-.1L42.7,29.4h.5l59.4-3.5ZM43.7,29.8,62.1,47.7l38.6-21.3Z"/><path class="cls-2" d="M14.3,86.8l6-38.3,42.4-.9ZM20.7,49,15,85.8,61.5,48.2Z"/><path class="cls-2" d="M19.5,126.9,14.4,86l21.5,4.5-.1.2ZM14.9,86.6l4.8,38.8L35.3,90.8Z"/><path class="cls-2" d="M34.9,91.3,62.1,47.4l10.7,20-.2.1Zm27.2-43L36.3,90l36-22.7Z"/><path class="cls-2" d="M120,70.2,72.1,67.5l.2-.3,29.3-41.6L120,70.2Zm-47-3,46.4,2.6L101.6,26.6Z"/><path class="cls-2" d="M137.6,45.6l-.3-.2L100.8,25.8l39.4-2.1V24l-2.6,21.6ZM102.4,26.2l34.8,18.7,2.5-20.7Z"/><path class="cls-2" d="m119.2 70.3 18.1-25.3l42 13.7zm18.3-24.8l-17.3 24.2 57.4-11.1-40.1-13.1z"/><path class="cls-2" d="M176,126.1l-21.1-23.5.1-.1,23.7-44.8v1L176,126.1Zm-20.6-23.5,20.2,22.5,2.6-65.4Z"/><path class="cls-2" d="M123,123v-.4l-3.5-53.2,36.1,33.1-.2.2L123,123Zm-3.1-52.5,3.4,51.7,31.5-19.7-34.9-32Z"/><path class="cls-2" d="M84.7,112.6l-.1-.4L72.3,67.1h.3l47.6,2.6L84.7,112.6Zm-11.9-45,12,44.1,34.4-41.5Z"/><path class="cls-2" d="M47.7,131.1l-.1-.2L35.3,90.3l50,21.9ZM35.9,91l12,39.4,36.3-18.3Z"/><path class="cls-2" d="M103.1,151.6l-.2-.3L84.4,111.9l.5.1,38.7,10.6-.2.3-20.3,28.7ZM85.2,112.5l18,38.2,19.7-27.9Z"/><path class="cls-2" d="M130.1,180.7,123,122.6l.1-.1,32.5-20.4-.2.6-25.3,78Zm-6.7-57.9,6.8,55.9,24.5-75.6-31.3,19.7Z"/><path class="cls-2" d="M130.4,180.3l-27.6-29.1.1-.1,20.4-29,.1.6Zm-27-29.2L129.9,179l-6.8-55.8-19.7,27.9Z"/><path class="cls-2" d="M84.2,183.3,84,183,47.2,130.4l56.2,20.7-.1.2-19.1,32Zm-35.8-52,35.8,51.2,18.6-31.2Z"/><path class="cls-2" d="M31.8,158.7,19.3,125.9l.4.1,28.5,4.7-.2.3ZM19.9,126.4l11.9,31.2,15.6-26.7Z"/><path class="cls-2" d="m33.7 158.3a1.6 1.6 0 1 1 -1.6 -1.6 1.58 1.58 0 0 1 1.6 1.6z"/><path class="cls-2" d="m131.5 179.8a1.6 1.6 0 1 1 -1.6 -1.6 1.58 1.58 0 0 1 1.6 1.6z"/><path class="cls-2" d="m104.2 151.1a1.6 1.6 0 1 1 -1.6 -1.6 1.58 1.58 0 0 1 1.6 1.6z"/><path class="cls-2" d="m177.4 125.9a1.6 1.6 0 1 1 -1.6 -1.6 1.58 1.58 0 0 1 1.6 1.6z"/><circle class="cls-2" cx="35.3" cy="90.7" r="1.6"/><path class="cls-2" d="m45.2 29.5a1.6 1.6 0 1 1 -1.6 -1.6 1.64 1.64 0 0 1 1.6 1.6z"/><circle class="cls-2" cx="140.1" cy="24.3" r="1.6"/><path class="cls-2" d="m102.3 8.3a1.6 1.6 0 1 1 -1.6 -1.6 1.58 1.58 0 0 1 1.6 1.6z"/><path class="cls-2" d="m15.9 86.4a1.6 1.6 0 1 1 -1.6 -1.6 1.58 1.58 0 0 1 1.6 1.6z"/><path class="cls-2" d="m22.2 48.7a1.6 1.6 0 1 1 -1.6 -1.6 1.58 1.58 0 0 1 1.6 1.6z"/><path class="cls-2" d="m49.6 131.2a1.6 1.6 0 1 1 -1.6 -1.6 1.64 1.64 0 0 1 1.6 1.6z"/><circle class="cls-2" cx="19.3" cy="126.1" r="1.6"/><path class="cls-2" d="m86.3 182.3a1.6 1.6 0 1 1 -1.6 -1.6 1.58 1.58 0 0 1 1.6 1.6z"/><path class="cls-2" d="m125.1 122.4a2.4 2.4 0 1 1 -2.4 -2.4 2.37 2.37 0 0 1 2.4 2.4z"/><path class="cls-2" d="m86.9 112.6a2.4 2.4 0 1 1 -2.4 -2.4 2.43 2.43 0 0 1 2.4 2.4z"/><path class="cls-2" d="m139.8 44.5a2.4 2.4 0 1 1 -2.4 -2.4 2.43 2.43 0 0 1 2.4 2.4z"/><path class="cls-2" d="m74.6 67.4a2.4 2.4 0 1 1 -2.4 -2.4 2.43 2.43 0 0 1 2.4 2.4z"/><path class="cls-2" d="M64.4,48A2.4,2.4,0,1,1,62,45.6,2.43,2.43,0,0,1,64.4,48Z"/><path class="cls-2" d="m157 103.4a2.4 2.4 0 1 1 -2.4 -2.4 2.43 2.43 0 0 1 2.4 2.4z"/><path class="cls-2" d="m180.5 58.5a2.4 2.4 0 1 1 -2.4 -2.4 2.37 2.37 0 0 1 2.4 2.4z"/><path class="cls-2" d="m121.8 69.7a2.4 2.4 0 1 1 -2.4 -2.4 2.43 2.43 0 0 1 2.4 2.4z"/><path class="cls-2" d="m103.3 26.5a2.4 2.4 0 1 1 -2.4 -2.4 2.37 2.37 0 0 1 2.4 2.4z"/></g><path class="cls-2" d="M98.7,11.2,72.3,2l60.2,1.8ZM75.1,2.5l23.6,8.2,30.2-6.6Z"/><path class="cls-2" d="M163.8,23.9l-28-11.1-5.7-9.5L164,23.5l-.2.4ZM136.1,12.5l25.3,10-30.1-18Z"/><path class="cls-2" d="M25.6,30.8,74.3,1.6,64,19.9h-.1Zm47.5-28L28.7,29.5l35-10Z"/><path class="cls-2" d="M189.9,60.8,164.3,41.3v-.1L163.7,23l.4.6,25.8,37.2ZM164.7,41.1,188,58.8,164.2,24.5Z"/><path class="cls-2" d="M4.7,66.8,27.4,29.4V46h-.1ZM26.9,30.9,6.6,64.4,26.9,45.7Z"/><path class="cls-2" d="M196.5,102l-13-32.3v-.1L189,59.1ZM183.9,69.7,195.3,98l-6.5-37.5Z"/><path class="cls-2" d="M2.9,108.7l-.4-.1,3-43.9L11.1,76ZM5.8,66.5,3.1,106.3l7.5-30.1Z"/><path class="cls-2" d="M187.6,139.4l-1.3-22v-.1l10-18.8Zm-.8-21.9,1.1,18.7,7.5-34.7Z"/><path class="cls-2" d="M15.7,149.5,2.3,108.2l14.6,9.1v.1ZM3.1,109.2,15.3,147l1.1-29.5Z"/><path class="cls-2" d="M150.7,180.6l20.1-38.9,17.6-4.3-37.7,43.2ZM171,142l-18.3,35.6,34.4-39.4L171,142Z"/><path class="cls-2" d="m43.5 178.9-28.8-31.2l20.2 8.6v0.1l8.6 22.5zm-27.1-30l25.9 28.1-7.7-20.4-18.2-7.7z"/><path class="cls-2" d="M106.1,194.7l17.6-18.2h.1l29,2.4-46.7,15.8ZM123.8,177l-16.2,16.7,43-14.5Z"/><path class="cls-2" d="M72.7,191.9,41.8,177.7l21,1.2.1.1ZM44,178.2l27.2,12.5-8.7-11.4Z"/><path class="cls-2" d="M107.8,194.5l-37-3.1,21-6.2h.1Zm-34.7-3.3,32.8,2.7-14.2-8.2Z"/><path class="cls-2" d="m129.1 28.1-31.3-17.4l38.5 1.8zm-29.5-16.9l29.2 16.3 6.7-14.6-35.9-1.7z"/><path class="cls-2" d="m93.6 22.2h-0.1l-31-2.4 36.7-9.2-5.6 11.6zm-28.4-2.6l28.2 2.2 5-10.5z"/><path class="cls-2" d="M26.4,46.2,64.1,19.3l.4,23h-.2ZM63.6,20.1,28,45.6l36.1-3.7Z"/><path class="cls-2" d="M10.2,76.8,27.1,45.5,37.9,57.6Zm17-30.6L11.5,75.4l25.8-18Z"/><path class="cls-2" d="M93.7,59.6l-.3-.2L63.9,42.1l.3-.2L93.8,21.6v38Zm-29-17.5L93.3,58.9V22.4Z"/><path class="cls-2" d="M93.3,59.7v-38l36.2,5.9-.3.3Zm.4-37.4V58.8L128.5,28Z"/><path class="cls-2" d="M165.3,41.8,128.6,28l.1-.2,7.1-15.4.2.2,29.3,29.2Zm-36-14.1,34.3,12.9L136,13Z"/><path class="cls-2" d="M143.3,79.4l-.4-.2L93.1,59.3l.3-.2,35.7-31.7.1.3,14.1,51.7ZM93.9,59.2l48.7,19.5L128.8,28.3Z"/><path class="cls-2" d="M98.6,105.7,93.3,58.9,143.5,79,98.6,105.7ZM93.8,59.6,99,105l43.6-25.9L93.8,59.6Z"/><path class="cls-2" d="M94.3,59.5,36.8,57.7,64.3,41.8l.1.1ZM38.4,57.3,92.6,59,64.3,42.3Z"/><path class="cls-2" d="M99,105.6l-60.8-1.3.5-.4,55-45.1v.4L99,105.6Zm-59.6-1.8,59.1,1.3L93.3,59.7Z"/><path class="cls-2" d="M39,104.6,10.5,76.1l27.3-19v.4ZM11.2,76.1l27.4,27.4L37.5,57.9Z"/><path class="cls-2" d="m16.5 117.8l-6-42.3 28.6 28.6zm-5.3-41.1 5.7 40.3l21.6-13.1z"/><path class="cls-2" d="M34.9,157.3,16.4,117.4l.2-.1,22.5-13.6v.4l-4.2,53.2ZM17,117.5l17.6,38,4-51.1L17,117.5Z"/><path class="cls-2" d="M83.1,150.4,38.3,103.8h.5L99,105.1l-.1.3-15.8,45ZM39.3,104.3l43.6,45.3,15.5-44Z"/><path class="cls-2" d="M152,131.8l-.4-.2L98.3,105.4l.3-.2,44.5-26.5.1.3,8.8,52.8ZM99.2,105.3,151.4,131l-8.6-51.6Z"/><path class="cls-2" d="M82.7,150.3,98.6,105l.2.1,53.5,26.3Zm16.2-44.6-15.5,44,67.7-18.4Z"/><path class="cls-2" d="M62.7,179.4l-.2-.1-28.3-23,49.3-6.5-.3.4L62.7,179.4ZM35.3,156.6l27.4,22.2,19.9-28.5Z"/><path class="cls-2" d="M92,185.8l-29.8-6.5L83,149.5ZM63,179l28.4,6.3-8.5-34.7Z"/><path class="cls-2" d="M90.9,185.9l.7-.6,61.1-55.1L123.9,177h-.1l-32.9,8.9Zm59.8-53.3L92.6,185.1l31-8.5,27.1-44Z"/><path class="cls-2" d="M123,177.6l.6-1,28-45.6.2.1,19.5,10.6-.3.2-48,35.7Zm28.8-45.9-27.2,44.2,45.9-34-18.7-10.2Z"/><path class="cls-2" d="M171,142.1l-19.8-10.7.4-.2L187.1,117,171,142.1Zm-18.8-10.7,18.6,10.2L186,117.9Z"/><path class="cls-2" d="M151.6,132.1l-8.9-53.2h.2l41.2-9.4-.2.4Zm-8.4-52.9,8.6,51.5L183.3,70l-40.1,9.2Z"/><path class="cls-2" d="M142.5,79.3l.2-.4,21.7-38.1L184,69.9Zm22-37.7L143.4,78.7l39.9-9.1Z"/><path class="cls-2" d="M151.2,131.8l32.6-62.9,3,48.7-.1.1-35.5,14.1Zm32.3-61.3L152.1,131l34.2-13.7Z"/><circle class="cls-2" cx="188.8" cy="60.3" r="3"/><circle class="cls-2" cx="142.6" cy="78.6" r="3"/><path class="cls-2" d="m166.9 40.7a3 3 0 1 1 -3 -3 3 3 0 0 1 3 3z"/><circle class="cls-2" cx="64.4" cy="41.7" r="3"/><path class="cls-2" d="m40.4 57.6a3 3 0 1 1 -3 -3 3.08 3.08 0 0 1 3 3z"/><path class="cls-2" d="m96.3 22.3a3 3 0 1 1 -3 -3 3.07 3.07 0 0 1 3 3z"/><circle class="cls-2" cx="128.9" cy="28.3" r="3"/><path class="cls-2" d="M138.3,13a2.4,2.4,0,1,1-2.4-2.4A2.5,2.5,0,0,1,138.3,13Z"/><path class="cls-2" d="M133.3,3.4a2.4,2.4,0,0,1-4.8,0,2.4,2.4,0,0,1,4.8,0Z"/><path class="cls-2" d="M101,11a2.4,2.4,0,1,1-2.4-2.4A2.5,2.5,0,0,1,101,11Z"/><path class="cls-2" d="M75.7,2.4a2.4,2.4,0,0,1-4.8,0,2.4,2.4,0,0,1,4.8,0Z"/><path class="cls-2" d="m29.5 30.7a2.4 2.4 0 1 1 -2.4 -2.4 2.43 2.43 0 0 1 2.4 2.4z"/><path class="cls-2" d="m30.1 46.3a2.4 2.4 0 1 1 -2.4 -2.4 2.37 2.37 0 0 1 2.4 2.4z"/><path class="cls-2" d="m13.8 76.3a2.4 2.4 0 1 1 -2.4 -2.4 2.43 2.43 0 0 1 2.4 2.4z"/><path class="cls-2" d="m18.1 147.8a2.4 2.4 0 1 1 -2.4 -2.4 2.37 2.37 0 0 1 2.4 2.4z"/><path class="cls-2" d="m44.4 178.4a2.4 2.4 0 1 1 -2.4 -2.4 2.43 2.43 0 0 1 2.4 2.4z"/><path class="cls-2" d="M74,191.4a2.4,2.4,0,1,1-2.4-2.4A2.43,2.43,0,0,1,74,191.4Z"/><path class="cls-2" d="m109.3 193.7a2.4 2.4 0 1 1 -2.4 -2.4 2.5 2.5 0 0 1 2.4 2.4z"/><path class="cls-2" d="m155.2 178.8a2.4 2.4 0 1 1 -2.4 -2.4 2.43 2.43 0 0 1 2.4 2.4z"/><path class="cls-2" d="m189.5 137.5a2.4 2.4 0 1 1 -2.4 -2.4 2.43 2.43 0 0 1 2.4 2.4z"/><path class="cls-2" d="m189.2 116.9a2.4 2.4 0 1 1 -2.4 -2.4 2.43 2.43 0 0 1 2.4 2.4z"/><path class="cls-2" d="m198.5 99.9a2.4 2.4 0 1 1 -2.4 -2.4 2.43 2.43 0 0 1 2.4 2.4z"/><path class="cls-2" d="m185.8 68.9a2.4 2.4 0 1 1 -2.4 -2.4 2.43 2.43 0 0 1 2.4 2.4z"/><path class="cls-2" d="m165.9 23.7a2.4 2.4 0 1 1 -2.4 -2.4 2.43 2.43 0 0 1 2.4 2.4z"/><path class="cls-2" d="m65.1 178.1a2.4 2.4 0 1 1 -2.4 -2.4 2.43 2.43 0 0 1 2.4 2.4z"/><path class="cls-2" d="M66.4,20A2.4,2.4,0,1,1,64,17.6,2.43,2.43,0,0,1,66.4,20Z"/><path class="cls-2" d="M8.2,65.6A2.43,2.43,0,0,1,5.8,68a2.4,2.4,0,1,1,0-4.8A2.43,2.43,0,0,1,8.2,65.6Z"/><path class="cls-2" d="m4.8 109.2a2.43 2.43 0 0 1 -2.4 2.4 2.4 2.4 0 0 1 0 -4.8 2.37 2.37 0 0 1 2.4 2.4z"/><circle class="cls-2" cx="82.7" cy="149.8" r="3"/><path class="cls-2" d="m95 184.8a3 3 0 1 1 -3 -3 3 3 0 0 1 3 3z"/><circle class="cls-2" cx="124.3" cy="176.1" r="3"/><circle class="cls-2" cx="171.2" cy="141.5" r="3"/><path class="cls-2" d="m19.1 116.9a3 3 0 1 1 -3 -3 3 3 0 0 1 3 3z"/><path class="cls-2" d="m37.4 156.1a3 3 0 1 1 -3 -3 3 3 0 0 1 3 3z"/><path class="cls-2" d="m102.5 104.9a4.2 4.2 0 1 1 -4.2 -4.2 4.16 4.16 0 0 1 4.2 4.2z"/><path class="cls-2" d="m96.9 59.3a4.2 4.2 0 1 1 -4.2 -4.2 4.16 4.16 0 0 1 4.2 4.2z"/><path class="cls-2" d="m155.8 131.2a4.2 4.2 0 1 1 -4.2 -4.2 4.1 4.1 0 0 1 4.2 4.2z"/><path class="cls-2" d="m42.6 104.2a4.2 4.2 0 1 1 -4.2 -4.2 4.23 4.23 0 0 1 4.2 4.2z"/></svg>